<?xml version="1.0" encoding="utf-8"?>
<!-- Generator: Adobe Illustrator 12.0.0, SVG Export Plug-In . SVG Version: 6.00 Build 51448)  -->
<!DOCTYPE svg PUBLIC "-//W3C//DTD SVG 1.1//EN" "http://www.w3.org/Graphics/SVG/1.1/DTD/svg11.dtd" [
	<!ENTITY ns_svg "http://www.w3.org/2000/svg">
	<!ENTITY ns_xlink "http://www.w3.org/1999/xlink">
]>
<svg  version="1.1" xmlns="&ns_svg;" xmlns:xlink="&ns_xlink;" width="400" height="300" viewBox="0 0 400 300"
	 overflow="visible" enable-background="new 0 0 400 300" xml:space="preserve">
<pattern  x="175" y="175" width="40" height="40" patternUnits="userSpaceOnUse" id="New_Pattern_Swatch_2" viewBox="0 -40 40 40">
	<g>
		<polygon fill="none" points="0,0 40,0 40,-40 0,-40 		"/>
		<polygon fill="#F77171" points="40,0 0,0 0,-40 40,-40 		"/>
		<g>
			<path fill="#BF0000" d="M7.085-15.383l2.444,2.443l-0.017,0.018c-0.501-0.145-1.222-0.018-1.858,0.619
				C6.661-11.31,6.636-9.621,8.019-8.256c1.248,1.248,2.859,1.315,3.853,0.322c0.67-0.67,0.814-1.51,0.585-2.197l0.017-0.017
				l0.747,0.679l0.67-0.67c-0.306-0.255-0.73-0.662-1.095-1.027L7.833-16.13L7.085-15.383z M11.388-11.081
				c0.119,0.119,0.212,0.229,0.288,0.356c0.416,0.688,0.298,1.485-0.203,1.985c-0.798,0.798-1.901,0.526-2.741-0.313
				c-0.899-0.899-1.12-2.036-0.348-2.809c0.56-0.561,1.357-0.577,1.935-0.221c0.127,0.076,0.254,0.187,0.356,0.288L11.388-11.081z"
				/>
			<path fill="#BF0000" d="M16.479-16.563c-0.068-0.102-0.178-0.229-0.331-0.382c-0.756-0.755-2.283-1.587-3.624-0.246
				c-1.196,1.196-0.958,2.91,0.289,4.158c1.23,1.229,2.834,1.307,4.09,0.051c0.653-0.653,0.967-1.256,1.111-1.638l-0.662-0.391
				c-0.161,0.382-0.399,0.807-0.934,1.341c-0.747,0.747-1.799,0.968-2.825-0.025L16.479-16.563z M13.068-14.237
				c-0.458-0.577-0.832-1.596-0.068-2.359c0.832-0.832,1.783-0.288,2.241,0.187L13.068-14.237z"/>
			<path fill="#BF0000" d="M18.286-16.655c0.365,0.364,0.771,0.789,1.027,1.094l0.645-0.645l-0.637-0.721l0.017-0.018
				c0.856,0.229,1.552-0.008,2.146-0.603c0.917-0.917,1.12-2.58-0.356-4.056c-1.238-1.239-2.799-1.374-3.818-0.356
				c-0.662,0.662-0.848,1.426-0.653,2.146l-0.017,0.018l-2.571-2.571l-0.747,0.747L18.286-16.655z M17.709-18.726
				c-0.119-0.119-0.204-0.238-0.271-0.356c-0.416-0.705-0.297-1.536,0.212-2.045c0.797-0.798,1.926-0.519,2.757,0.313
				c0.942,0.942,1.12,2.037,0.331,2.827c-0.534,0.534-1.332,0.619-1.994,0.245c-0.102-0.068-0.204-0.152-0.297-0.245L17.709-18.726z
				"/>
			<path fill="#BF0000" d="M23.505-27.967l-0.747,0.747l2.512,2.512c0.145,0.145,0.254,0.305,0.314,0.45
				c0.203,0.475,0.203,1.17-0.297,1.67c-0.671,0.671-1.451,0.383-2.232-0.398l-2.265-2.266l-0.747,0.748l2.4,2.401
				c1.435,1.435,2.571,1.027,3.216,0.383c0.73-0.73,0.738-1.605,0.595-2.122l0.017-0.017l0.713,0.628l0.662-0.662
				c-0.348-0.297-0.729-0.663-1.153-1.086L23.505-27.967z"/>
			<path fill="#BF0000" d="M29.376-31.598c-0.501-0.5-0.822-0.84-1.087-1.154l-0.661,0.662l0.586,0.636l-0.017,0.017
				c-0.526-0.152-1.273-0.135-1.986,0.578c-0.95,0.95-1.077,2.639,0.313,4.03c1.146,1.146,2.741,1.281,3.759,0.263
				c0.637-0.637,0.781-1.392,0.62-1.995l0.017-0.017l0.45,0.45c1.044,1.044,0.882,2.002,0.118,2.766
				c-0.509,0.509-1.085,0.78-1.535,0.875l0.391,0.764c0.551-0.111,1.213-0.536,1.705-1.027c0.518-0.518,0.968-1.222,1.01-1.994
				c0.025-0.756-0.348-1.519-1.298-2.469L29.376-31.598z M29.859-29.621c0.136,0.136,0.264,0.298,0.34,0.458
				c0.331,0.636,0.204,1.34-0.263,1.807c-0.798,0.797-1.893,0.535-2.69-0.263c-0.958-0.958-1.052-2.07-0.339-2.783
				c0.551-0.552,1.264-0.552,1.841-0.247c0.136,0.068,0.255,0.17,0.374,0.289L29.859-29.621z"/>
		</g>
	</g>
</pattern>
<g id="Layer_2">
</g>
<g id="Layer_1">
	<rect fill="url(#New_Pattern_Swatch_2)" width="400" height="300"/>
</g>
</svg>
